<?xml version="1.0" encoding="utf-8"?>
<!-- Generator: Adobe Illustrator 19.0.0, SVG Export Plug-In . SVG Version: 6.00 Build 0)  -->
<svg version="1.1" id="Layer_1" xmlns="http://www.w3.org/2000/svg" xmlns:xlink="http://www.w3.org/1999/xlink" x="0px" y="0px"
	 width="18.2px" height="14.9px" viewBox="-281.9 390 18.2 14.9" style="enable-background:new -281.9 390 18.2 14.9;"
	 xml:space="preserve">
<style type="text/css">
	.st0{fill:#333333;}
</style>
<path class="st0" d="M-265.9,399.8l2.2-6.4c0.1-0.3,0-0.5-0.1-0.6c-0.2-0.3-0.7-0.3-0.8-0.3l-12.2,0l-0.3-1.6
	c-0.1-0.4-0.3-0.8-0.9-0.8h-3.4c-0.4,0-0.5,0.4-0.5,0.7v0.9c0,0.3,0.1,0.2,0.5,0.2h2.9l2.2,9.5c-0.4,0.4-0.5,1-0.5,1.5
	c0,1.1,0.9,2.1,2,2.1c1.1,0,1.9-1.1,2-1.7h4.3c0.1,0.6,0.8,1.7,2,1.7c1.1,0,2-0.9,2-2c0-1.1-0.7-2.2-2-2.2c-0.6,0-1.2,0.1-1.5,0.7
	h-5.3c-0.4-0.6-0.9-0.8-1.4-0.8l-0.1-0.4h8.1C-266.1,400.2-266,400-265.9,399.8z M-275.6,402.9c0-0.4,0.3-0.8,0.8-0.8
	c0.4,0,0.8,0.3,0.8,0.8c0,0.4-0.3,0.8-0.8,0.8C-275.2,403.7-275.6,403.3-275.6,402.9z M-266.4,403.6c-0.4,0-0.8-0.3-0.8-0.8
	c0-0.4,0.3-0.8,0.8-0.8c0.4,0,0.8,0.3,0.8,0.8C-265.7,403.3-266,403.6-266.4,403.6z"/>
</svg>
