<?xml version="1.0" encoding="utf-8"?>
<!-- Generator: Adobe Illustrator 19.0.0, SVG Export Plug-In . SVG Version: 6.00 Build 0)  -->
<svg version="1.1" id="Layer_1" xmlns="http://www.w3.org/2000/svg" xmlns:xlink="http://www.w3.org/1999/xlink" x="0px" y="0px"
	 width="90px" height="15.2px" viewBox="0 2.8 90 15.2" style="enable-background:new 0 2.8 90 15.2;" xml:space="preserve">
<style type="text/css">
	.st0{fill:#FFB500;}
	.st1{fill:#DDDDDD;}
</style>
<polygon id="XMLID_1_" class="st0" points="8,2.8 10.5,7.8 16,8.6 12,12.5 13,18 8,15.4 3.1,18 4,12.5 0,8.6 5.5,7.8 "/>
<polygon id="XMLID_3_" class="st0" points="26.5,2.8 29,7.8 34.5,8.6 30.5,12.5 31.5,18 26.5,15.4 21.6,18 22.5,12.5 18.5,8.6 
	24,7.8 "/>
<polygon id="XMLID_4_" class="st0" points="45,2.8 47.5,7.8 53,8.6 49,12.5 50,18 45,15.4 40.1,18 41,12.5 37,8.6 42.5,7.8 "/>
<polygon id="XMLID_5_" class="st0" points="63.5,2.8 66,7.8 71.5,8.6 67.5,12.5 68.5,18 63.5,15.4 58.6,18 59.5,12.5 55.5,8.6 
	61,7.8 "/>
<polygon id="XMLID_6_" class="st1" points="82,2.8 84.5,7.8 90,8.6 86,12.5 87,18 82,15.4 77.1,18 78,12.5 74,8.6 79.5,7.8 "/>
</svg>
